<svg height="1966" width="720" xmlns="http://www.w3.org/2000/svg">
<rect height="1966" fill="#555" width="720"></rect>
<text fill="#7f7" font-family="Courier New" font-size="12" xml:space="preserve">
<tspan x="10" y="26"></tspan>
<tspan x="10" y="42">&gt; npmdoc-pg@0.0.1 test /home/travis/build/npmdoc/node-npmdoc-pg</tspan>
<tspan x="10" y="58">&gt; (set -e; export PORT=$(utility2 shServerPortRandom); utility2 test test.js)</tspan>
<tspan x="10" y="74"></tspan>
<tspan x="10" y="90"></tspan>
<tspan x="10" y="106">[MODE_BUILD=npmTest] - 2017-03-20T14:25:15Z - npm-testing /home/travis/build/npmdoc/node-npmdoc-\</tspan>
<tspan x="10" y="122">pg</tspan>
<tspan x="10" y="138"></tspan>
<tspan x="10" y="154"></tspan>
<tspan x="10" y="170">covering $ /home/travis/.nvm/versions/node/v7.7.3/bin/node /home/travis/build/npmdoc/node-npmdoc\</tspan>
<tspan x="10" y="186">-pg/test.js</tspan>
<tspan x="10" y="202">merging file:///home/travis/build/npmdoc/node-npmdoc-pg/tmp/build/test-report.json to test-repor\</tspan>
<tspan x="10" y="218">t</tspan>
<tspan x="10" y="234">&gt; server listening on http-port 39912</tspan>
<tspan x="10" y="250">Cannot find module 'pg-native'</tspan>
<tspan x="10" y="266">created apidoc file:///home/travis/build/npmdoc/node-npmdoc-pg/tmp/build/apidoc.html</tspan>
<tspan x="10" y="282"></tspan>
<tspan x="10" y="298"></tspan>
<tspan x="10" y="314">browserTest - created electron entry-page /home/travis/build/npmdoc/node-npmdoc-pg/tmp/electron.\</tspan>
<tspan x="10" y="330">15aec1b99a60.7f7119a313bc8.html</tspan>
<tspan x="10" y="346"></tspan>
<tspan x="10" y="362">Xlib:  extension "RANDR" missing on display ":99.0".</tspan>
<tspan x="10" y="378">[node test-case 1 of 6 passed] - testCase_buildLib_default</tspan>
<tspan x="10" y="394">[node test-case 2 of 6 passed] - testCase_buildReadme_default</tspan>
<tspan x="10" y="410">[node test-case 3 of 6 passed] - testCase_buildTest_default</tspan>
<tspan x="10" y="426"></tspan>
<tspan x="10" y="442">browserTest - created electron entry-page /home/travis/build/npmdoc/node-npmdoc-pg/tmp/electron.\</tspan>
<tspan x="10" y="458">15aec1b9a6f0.70f45b9ae89e9.html</tspan>
<tspan x="10" y="474"></tspan>
<tspan x="10" y="490">(node:4375) DeprecationWarning: node --debug is deprecated. Please use node --inspect instead.</tspan>
<tspan x="10" y="506">Xlib:  extension "RANDR" missing on display ":99.0".</tspan>
<tspan x="10" y="522">&gt; server listening on http-port 43482</tspan>
<tspan x="10" y="538">merging file:///home/travis/build/npmdoc/node-npmdoc-pg/tmp/build/test-report.json to test-repor\</tspan>
<tspan x="10" y="554">t</tspan>
<tspan x="10" y="570">Xlib:  extension "RANDR" missing on display ":99.0".</tspan>
<tspan x="10" y="586">[4389:0320/142517:WARNING:audio_manager.cc(314)] Multiple instances of AudioManager detected</tspan>
<tspan x="10" y="602">[4389:0320/142517:WARNING:audio_manager.cc(275)] Multiple instances of AudioManager detected</tspan>
<tspan x="10" y="618">[4433:0320/142517:ERROR:sandbox_linux.cc(343)] InitializeSandbox() called with multiple threads \</tspan>
<tspan x="10" y="634">in process gpu-process. </tspan>
<tspan x="10" y="650">merging file:///home/travis/build/npmdoc/node-npmdoc-pg/tmp/build/test-report.json to test-repor\</tspan>
<tspan x="10" y="666">t</tspan>
<tspan x="10" y="682">[4389:0320/142517:ERROR:browser_gpu_channel_host_factory.cc(131)] Failed to create channel.</tspan>
<tspan x="10" y="698">Xlib:  extension "RANDR" missing on display ":99.0".</tspan>
<tspan x="10" y="714">[4412:0320/142517:WARNING:audio_manager.cc(314)] Multiple instances of AudioManager detected</tspan>
<tspan x="10" y="730">[4412:0320/142517:WARNING:audio_manager.cc(275)] Multiple instances of AudioManager detected</tspan>
<tspan x="10" y="746">[4462:0320/142517:ERROR:sandbox_linux.cc(343)] InitializeSandbox() called with multiple threads \</tspan>
<tspan x="10" y="762">in process gpu-process. </tspan>
<tspan x="10" y="778">[4412:0320/142517:ERROR:browser_gpu_channel_host_factory.cc(131)] Failed to create channel.</tspan>
<tspan x="10" y="794"></tspan>
<tspan x="10" y="810">browserTest - opened url file:///home/travis/build/npmdoc/node-npmdoc-pg/tmp/build/apidoc.html</tspan>
<tspan x="10" y="826"></tspan>
<tspan x="10" y="842"></tspan>
<tspan x="10" y="858">browserTest - opened url http://127.0.0.1:39912?modeTest=1</tspan>
<tspan x="10" y="874"></tspan>
<tspan x="10" y="890">[4412:0320/142519:INFO:CONSOLE(203)] "----------|-----------|-----------|-----------|-----------\</tspan>
<tspan x="10" y="906">|</tspan>
<tspan x="10" y="922">File      |   % Stmts |% Branches |   % Funcs |   % Lines |</tspan>
<tspan x="10" y="938">----------|-----------|-----------|-----------|-----------|</tspan>
<tspan x="10" y="954">----------|-----------|-----------|-----------|-----------|</tspan>
<tspan x="10" y="970">All files |       100 |       100 |       100 |       100 |</tspan>
<tspan x="10" y="986">----------|-----------|-----------|-----------|-----------|</tspan>
<tspan x="10" y="1002">", source: file:///home/travis/build/npmdoc/node-npmdoc-pg/tmp/electron.15aec1b9a6f0.70f45b9ae89\</tspan>
<tspan x="10" y="1018">e9.html (203)</tspan>
<tspan x="10" y="1034">[4412:0320/142519:INFO:CONSOLE(203)] "created coverage file:///tmp/build/coverage.html/index.htm\</tspan>
<tspan x="10" y="1050">l", source: file:///home/travis/build/npmdoc/node-npmdoc-pg/tmp/electron.15aec1b9a6f0.70f45b9ae8\</tspan>
<tspan x="10" y="1066">9e9.html (203)</tspan>
<tspan x="10" y="1082">[node test-case 4 of 6 passed] - testCase_buildApp_default</tspan>
<tspan x="10" y="1098"></tspan>
<tspan x="10" y="1114">browserTest - created screen-capture file:///home/travis/build/npmdoc/node-npmdoc-pg/tmp/build/s\</tspan>
<tspan x="10" y="1130">creen-capture.npmTest.browser._2Fhome_2Ftravis_2Fbuild_2Fnpmdoc_2Fnode-npmdoc-pg_2Ftmp_2Fbuild_2\</tspan>
<tspan x="10" y="1146">Fapidoc.html.png</tspan>
<tspan x="10" y="1162"></tspan>
<tspan x="10" y="1178"></tspan>
<tspan x="10" y="1194">browserTest - exit-code 0 - file:///home/travis/build/npmdoc/node-npmdoc-pg/tmp/build/apidoc.htm\</tspan>
<tspan x="10" y="1210">l</tspan>
<tspan x="10" y="1226"></tspan>
<tspan x="10" y="1242">[node test-case 5 of 6 passed] - testCase_buildApidoc_default</tspan>
<tspan x="10" y="1258"></tspan>
<tspan x="10" y="1274">browserTest - created screen-capture file:///home/travis/build/npmdoc/node-npmdoc-pg/tmp/build/s\</tspan>
<tspan x="10" y="1290">creen-capture.npmTest.browser..png</tspan>
<tspan x="10" y="1306"></tspan>
<tspan x="10" y="1322"></tspan>
<tspan x="10" y="1338">browserTest - exit-code 0 - http://127.0.0.1:39912?modeTest=1</tspan>
<tspan x="10" y="1354"></tspan>
<tspan x="10" y="1370"></tspan>
<tspan x="10" y="1386">browserTest - merged coverage from /home/travis/build/npmdoc/node-npmdoc-pg/tmp/coverage.npmTest\</tspan>
<tspan x="10" y="1402">.browser.%2F.json</tspan>
<tspan x="10" y="1418"></tspan>
<tspan x="10" y="1434"></tspan>
<tspan x="10" y="1450">browserTest - merging test-report from /home/travis/build/npmdoc/node-npmdoc-pg/tmp/test-report.\</tspan>
<tspan x="10" y="1466">npmTest.browser.%2F.json</tspan>
<tspan x="10" y="1482"></tspan>
<tspan x="10" y="1498">[node test-case 6 of 6 passed] - testCase_webpage_default</tspan>
<tspan x="10" y="1514">-----------------------|-----------|-----------|-----------|-----------|</tspan>
<tspan x="10" y="1530">File                   |   % Stmts |% Branches |   % Funcs |   % Lines |</tspan>
<tspan x="10" y="1546">-----------------------|-----------|-----------|-----------|-----------|</tspan>
<tspan x="10" y="1562">   node-npmdoc-pg/     |       100 |       100 |       100 |       100 |</tspan>
<tspan x="10" y="1578">      example.js       |       100 |       100 |       100 |       100 |</tspan>
<tspan x="10" y="1594">      lib.npmdoc_pg.js |       100 |       100 |       100 |       100 |</tspan>
<tspan x="10" y="1610">      test.js          |       100 |       100 |       100 |       100 |</tspan>
<tspan x="10" y="1626">-----------------------|-----------|-----------|-----------|-----------|</tspan>
<tspan x="10" y="1642">All files              |       100 |       100 |       100 |       100 |</tspan>
<tspan x="10" y="1658">-----------------------|-----------|-----------|-----------|-----------|</tspan>
<tspan x="10" y="1674"></tspan>
<tspan x="10" y="1690">created coverage file:///home/travis/build/npmdoc/node-npmdoc-pg/tmp/build/coverage.html/index.h\</tspan>
<tspan x="10" y="1706">tml</tspan>
<tspan x="10" y="1722">merging file:///home/travis/build/npmdoc/node-npmdoc-pg/tmp/build/test-report.json to test-repor\</tspan>
<tspan x="10" y="1738">t</tspan>
<tspan x="10" y="1754"></tspan>
<tspan x="10" y="1770">-------------------------------------------------------</tspan>
<tspan x="10" y="1786">| test-report - buildNpmdoc - node - linux v7.7.3 - 2017-03-20T14:25:05.065Z</tspan>
<tspan x="10" y="1802">|   16701 ms            0 failed        6 passed      |</tspan>
<tspan x="10" y="1818">-------------------------------------------------------</tspan>
<tspan x="10" y="1834"></tspan>
<tspan x="10" y="1850">created test-report file:///home/travis/build/npmdoc/node-npmdoc-pg/tmp/build/test-report.html</tspan>
<tspan x="10" y="1866"></tspan>
<tspan x="10" y="1882"></tspan>
<tspan x="10" y="1898">npmTest - 0 failed tests</tspan>
<tspan x="10" y="1914"></tspan>
<tspan x="10" y="1930"></tspan>
<tspan x="10" y="1946">[MODE_BUILD=npmTest] - 2017-03-20T14:25:24Z - EXIT_CODE - 0</tspan>
</text>
</svg>
